# xmcd
#
# Track frame offsets: 
#        150
#        10587
#        26267
#        41057
#        56072
#        72360
#        91772
#        107027
#        118282
#        138172
#        156487
#        172110
#        185017
#        196495
#        211950
#
# Disc length: 3043 seconds
#
# Revision: 0
# Processed by: cddbd v1.5.2PL0 Copyright (c) Steve Scherf et al.
# Submitted via: ExactAudioCopyFreeDBPlugin 1.0
#
DISCID=d50be10f
DTITLE=Eager Beavers - Dam 'n' Blast
DYEAR=1992
DGENRE=Rockabilly
TTITLE0=We Start Rockin'
TTITLE1=Sea Of Gin
TTITLE2=Starry Nights
TTITLE3=Sometimes I Realise
TTITLE4=Feel The Pain
TTITLE5=Cat In Disguise
TTITLE6=Brand New Cadillac (live)
TTITLE7=One Remedy
TTITLE8=Midnite Train
TTITLE9=Justified
TTITLE10=Interceptor
TTITLE11=Brand New Day
TTITLE12=Built To Last
TTITLE13=Eager To Please
TTITLE14=Red Red Sweater
EXTD=
EXTT0=
EXTT1=
EXTT2=
EXTT3=
EXTT4=
EXTT5=
EXTT6=
EXTT7=
EXTT8=
EXTT9=
EXTT10=
EXTT11=
EXTT12=
EXTT13=
EXTT14=
PLAYORDER=
